<svg width="400" height="480" viewBox="0 0 400 480" fill="none" xmlns="http://www.w3.org/2000/svg">
  <!--
    Sign Secure - Full Logo (Fingerprint S + Text)
  -->

  <!-- Fingerprint S mark, centered horizontally -->
  <g transform="translate(100, 10)" stroke="#1A8FD1" stroke-linecap="round" fill="none" stroke-width="5.8">

    <!-- ===== TOP HALF OF S ===== -->
    <path d="M 56,132 C 56,46  144,46  144,100"/>
    <path d="M 66,128 C 66,56  136,56  136,102"/>
    <path d="M 74,124 C 74,66  128,66  128,104"/>
    <path d="M 82,121 C 82,76  120,76  120,105"/>
    <path d="M 88,118 C 88,86  114,86  114,106"/>
    <path d="M 93,115 C 93,96  108,96  108,107"/>

    <!-- ===== BOTTOM HALF OF S ===== -->
    <path d="M 144,108 C 144,194  56,194  56,140"/>
    <path d="M 136,110 C 136,184  66,184  66,138"/>
    <path d="M 128,112 C 128,174  74,174  74,136"/>
    <path d="M 120,114 C 120,164  82,164  82,134"/>
    <path d="M 114,116 C 114,154  88,154  88,132"/>
    <path d="M 108,117 C 108,144  93,144  93,130"/>
  </g>

  <!-- SIGN text -->
  <text x="200" y="345" text-anchor="middle"
    font-family="'Segoe UI', 'Helvetica Neue', Arial, sans-serif"
    font-weight="800" font-size="56" fill="#1A8FD1" letter-spacing="10">SIGN</text>

  <!-- SECURE text -->
  <text x="200" y="405" text-anchor="middle"
    font-family="'Segoe UI', 'Helvetica Neue', Arial, sans-serif"
    font-weight="800" font-size="56" fill="#1A8FD1" letter-spacing="10">SECURE</text>
</svg>
