<svg width="132" height="32" viewBox="0 0 132 32" fill="none" xmlns="http://www.w3.org/2000/svg" role="img" aria-label="SignX">
  <rect x="0.5" y="3" width="29" height="26" rx="6" fill="#0B1F3A"/>
  <path d="M10 11.5c0-1.3 1.1-2.3 2.6-2.3 1.2 0 2.1.5 2.6 1.4l-1.5.9c-.2-.4-.6-.7-1.1-.7-.5 0-.8.2-.8.6 0 1.2 3.7.5 3.7 3.3 0 1.4-1.2 2.4-2.8 2.4-1.3 0-2.3-.6-2.8-1.6l1.5-.9c.2.5.7.8 1.3.8.6 0 .9-.2.9-.6 0-1.2-3.6-.5-3.6-3.3z" fill="#3B82F6"/>
  <path d="M18.5 9.4h1.9v8.3h-1.9z" fill="#fff"/>
  <path d="M20.6 20.5l1.6 1.6-4.2 4.2-1.6-1.6zM23.4 20.5l-1.6 1.6 4.2 4.2 1.6-1.6z" fill="#F5A623"/>
  <text x="37" y="22" font-family="'Segoe UI', Arial, sans-serif" font-size="18" font-weight="700" fill="#0B1F3A">Sign<tspan fill="#3B82F6">X</tspan></text>
</svg>
