<svg xmlns="http://www.w3.org/2000/svg" viewBox="0 0 525.83 74.48" height="67" width="470">
<defs>
<style>.cls-1,.cls-2{fill:#1437a6;}.cls-2{fill-rule:evenodd;}</style>
</defs>
<title>watchdatalogo</title><g id="id_2" data-name="id 2"><g id="id_1-2" data-name="id 1"><path class="cls-1" d="M418.53,24.15a16,16,0,0,0-8.64-4.26,83.74,83.74,0,0,0-14.62-1,65.88,65.88,0,0,0-10.8.85,28.74,28.74,0,0,0-8.13,2.39,22.13,22.13,0,0,0-6.81,5,27.33,27.33,0,0,0-5.27,10h20.06a10.88,10.88,0,0,1,3.91-4.67A15.75,15.75,0,0,1,396,30.91c2.62,0,4.37.49,5.25,1.49s1.13,2.73.74,5.22c-2.71,1-5.26,1.79-7.63,2.41s-7.53,1.68-15.44,3.21Q369,45.13,364.84,49a16.64,16.64,0,0,0-5.14,9.89,12,12,0,0,0,3.24,10.79c2.86,2.92,7.45,4.38,13.82,4.38a36.8,36.8,0,0,0,13-2.18,33.08,33.08,0,0,0,8.87-5.48,23.33,23.33,0,0,0,1.18,6.27H419a20.78,20.78,0,0,1-.79-11l3.7-23.32a21.41,21.41,0,0,0-.27-7.82A12.2,12.2,0,0,0,418.53,24.15ZM399.88,51a14.86,14.86,0,0,1-2.2,6.14,12.63,12.63,0,0,1-4.81,4,14.49,14.49,0,0,1-6.62,1.63c-2.18,0-3.75-.5-4.72-1.52a4.35,4.35,0,0,1-1.07-3.9,6.11,6.11,0,0,1,2.3-3.73c1.28-1.06,4.08-2.14,8.42-3.23,3.16-.76,6.24-1.64,9.22-2.63Z"/><path class="cls-1" d="M146.38,24.16a16,16,0,0,0-8.63-4.26,85,85,0,0,0-14.64-1,64.84,64.84,0,0,0-10.79.85,28.76,28.76,0,0,0-8.13,2.38,22.13,22.13,0,0,0-6.81,5,27.54,27.54,0,0,0-5.27,10h20.06a10.92,10.92,0,0,1,3.91-4.68,15.79,15.79,0,0,1,7.8-1.59c2.61,0,4.37.49,5.25,1.49s1.13,2.74.73,5.22c-2.71,1-5.24,1.79-7.62,2.41s-7.54,1.68-15.45,3.21c-6.6,1.26-11.31,3.18-14.09,5.76a16.63,16.63,0,0,0-5.14,9.9A11.92,11.92,0,0,0,90.81,69.7q4.25,4.36,13.82,4.37a36.64,36.64,0,0,0,13-2.18,33,33,0,0,0,8.87-5.48,22.58,22.58,0,0,0,1.18,6.27h19.21a20.9,20.9,0,0,1-.78-11l3.69-23.31a21.67,21.67,0,0,0-.26-7.83A12.21,12.21,0,0,0,146.38,24.16ZM127.74,51.05a15.15,15.15,0,0,1-2.21,6.14,12.6,12.6,0,0,1-4.8,4,14.43,14.43,0,0,1-6.63,1.63c-2.18,0-3.75-.5-4.72-1.52a4.31,4.31,0,0,1-1.06-3.89,6.06,6.06,0,0,1,2.3-3.74c1.27-1,4.08-2.13,8.41-3.22,3.17-.77,6.24-1.64,9.22-2.64Z"/><path class="cls-1" d="M525.58,38.31a21.62,21.62,0,0,0-.26-7.82,12.27,12.27,0,0,0-3.12-6.34,16,16,0,0,0-8.64-4.26,83.66,83.66,0,0,0-14.62-1,66.09,66.09,0,0,0-10.81.85A28.76,28.76,0,0,0,480,22.11a22.13,22.13,0,0,0-6.81,5,27.18,27.18,0,0,0-5.27,10H488a10.88,10.88,0,0,1,3.91-4.67,15.79,15.79,0,0,1,7.8-1.59c2.61,0,4.36.49,5.24,1.49s1.13,2.73.74,5.22c-2.71,1-5.26,1.79-7.63,2.41s-7.53,1.68-15.45,3.21q-9.92,1.89-14.09,5.76a16.57,16.57,0,0,0-5.13,9.89,11.89,11.89,0,0,0,3.25,10.79q4.25,4.38,13.81,4.38a36.79,36.79,0,0,0,13-2.18,33.08,33.08,0,0,0,8.87-5.48,22.6,22.6,0,0,0,1.19,6.27h19.21a20.9,20.9,0,0,1-.78-11ZM503.55,51a15,15,0,0,1-2.2,6.14,12.63,12.63,0,0,1-4.81,4,14.49,14.49,0,0,1-6.62,1.63c-2.19,0-3.76-.5-4.72-1.52a4.33,4.33,0,0,1-1.07-3.9,6.11,6.11,0,0,1,2.3-3.73q1.92-1.59,8.41-3.23,4.77-1.14,9.22-2.63Z"/><path class="cls-1" d="M178.39,58.06c-.33-.72-.34-2.21,0-4.46l3-18.71h11.22L195,20.08H183.84l2-12.44H165.54l-2,12.44h-7.84l-2.35,14.81h7.79l-3,18.58c-.93,5.89-1.2,10.15-.45,12.78a9.46,9.46,0,0,0,4.43,5.88q3.31,1.94,11,1.94a59.12,59.12,0,0,0,13.21-1.39l1.93-14.22a24.86,24.86,0,0,1-6.54,1.3C180,59.76,178.87,59.18,178.39,58.06Z"/><path class="cls-1" d="M450.51,58.05c-.32-.72-.34-2.22,0-4.46l3-18.71h11.23l2.35-14.81H456l2-12.44H437.66l-2,12.44H427.8l-2.34,14.81h7.79l-3,18.58c-.93,5.89-1.19,10.14-.45,12.77a9.47,9.47,0,0,0,4.42,5.89q3.32,1.93,11,1.94a59.14,59.14,0,0,0,13.22-1.39l1.93-14.22a24.76,24.76,0,0,1-6.54,1.29C452.09,59.74,451,59.17,450.51,58.05Z"/><polygon class="cls-1" points="81.48 0.01 67.89 40 63.33 6.83 48.58 37.38 52.96 72.68 75.27 72.68 102.97 0.01 81.48 0.01"/><polygon class="cls-1" points="40.75 0.01 22.95 40.66 21.6 0.01 0 0.01 4.87 72.68 27.19 72.68 62.22 0.01 40.75 0.01"/><path class="cls-1" d="M233.37,51.07h20.52a40.48,40.48,0,0,1-8.45,14A30.22,30.22,0,0,1,235,71.75c-4.1,1.64-9.38,2.35-15.24,2.35a46.66,46.66,0,0,1-13.47-1.66,20.5,20.5,0,0,1-9-5.24A20.06,20.06,0,0,1,192.35,59c-1-3.18-1.12-7.33-.19-12.59a34.1,34.1,0,0,1,5.12-13.66,30.62,30.62,0,0,1,6.83-6.91,31.33,31.33,0,0,1,8.11-4.57A45.55,45.55,0,0,1,228,18.86c8.7,0,14.44,2,18.47,5.11s8.72,8.57,8.86,19.36H234.72c.23-5.16-.44-7.39-2.44-9.13a9,9,0,0,0-6.05-1.87A12.34,12.34,0,0,0,217.38,36a19.68,19.68,0,0,0-5.6,11c-.77,4.39.19,7.76,1.87,10A8.53,8.53,0,0,0,221,60.38a11.51,11.51,0,0,0,6.8-1.93A14.87,14.87,0,0,0,233.37,51.07Z"/><path class="cls-1" d="M301,46.33a38.61,38.61,0,0,1,6.94-16.64c-6.88-16.26-25.7-10.16-29.14-7.64-.13.1-.26.2-.37.3L282,0H264.68L253,72.68h21c-.07-.14-.15-.26-.23-.41l4-23.86-3.94,0c-2.76.06-4.25-.72-3.8-3.63l1.27-8.48c.45-2.66,2.35-5.08,6.87-5.15,3.95-.06,11.57-.21,15.11-.06,3.15.14,2.68,3.38,2.47,4.67l-1.29,8.47c-1.14,7.34-9.86,1.06-10.74,7.87L282.94,56l-1.33,6.94c-2.68,2.49-2.69,4.39-.66,6.21-.54,1.41-1,2.6-1.51,3.58h22.5l.92-8Q299.33,57,301,46.33Z"/><path class="cls-2" d="M349.16,0l-9.64,56.69a16.36,16.36,0,0,1-4.67,1.18c-4.41.47-7.68-.88-9.93-3.79a10.7,10.7,0,0,1-2.31-6.38c0-6.61,5.88-11.34,11.07-12.07l.26-1.3a2.91,2.91,0,0,1,2.34-2.18l1.15-.1,1.4-7.38v0s.36-2.49,1.12-2.24a5.21,5.21,0,0,0-1.39-.89,6.25,6.25,0,0,0-1.32-.41,26.25,26.25,0,0,0-23.37,6.32C309,32.2,306,37.59,304.63,46.33q-1.85,11.73,2.61,19.94t15.37,8.21c9.76,0,11.68-5.15,14.69-9L336,72.66h19.17L366.51,0Z"/></g></g></svg>